{"title":"Hall Pass 2011 TS XViD - IMAGiNE [NoRar]","uid":6227082,"size":1460641442,"categoryP":"video","categoryS":"movies","magnet":"?xt=urn:btih:f5c57ce8915d6e63b8ef8c4e5c35bc224f2c33d6&amp;dn=Hall+Pass+2011+TS+XViD+-+IMAGiNE+%5BNoRar%5D&amp;tr=udp%3A%2F%2Ftracker.openbittorrent.com%3A80&amp;tr=udp%3A%2F%2Fopen.demonii.com%3A1337&amp;tr=udp%3A%2F%2Ftracker.coppersurfer.tk%3A6969&amp;tr=udp%3A%2F%2Fexodus.desync.com%3A6969","seeders":1,"leechers":0,"uploader":"hiest","files":-1,"time":1299557030,"description":"\n#### ##     ##    ###     ######   #### ##    ## ######## \n ##  ###   ###   ## ##   ##    ##   ##  ###   ## ##       \n ##  #### ####  ##   ##  ##         ##  ####  ## ##       \n ##  ## ### ## ##     ## ##   ####  ##  ## ## ## ######   \n ##  ##     ## ######### ##    ##   ##  ##  #### ##       \n ##  ##     ## ##     ## ##    ##   ##  ##   ### ##       \n#### ##     ## ##     ##  ######   #### ##    ## ######## \n\n\nHall Pass 2011 TS XViD - IMAGiNE\n\n\nRipper ...........: IMAGiNE IMDB Rating.......:5.9/10\nVideo Codec.......: XVID Release Date......:07/03/11\nAudio Codec.......:MP3 Theatre Date......:25/02/11\nAudio Bitrate.....:128 Runtime.......:1h 33mn\nSubtitles.........:NIL Language..........:ENGLISH\nResolution...... 688 x 304 \nIMDb URL..........: &lt;a href=&quot;\nhttp://www.imdb.com/title/tt0480687/&quot; rel=&quot;nofollow&quot; target=&quot;_NEW&quot;&gt;\nhttp://www.imdb.com/title/tt0480687/&lt;/a&gt;\n\n\nDETAILS:\n\nVideo\nID : 0\nFormat : MPEG-4 Visual\nFormat profile : Advanced Simple@L5\nFormat settings, BVOP : 2\nFormat settings, QPel : No\nFormat settings, GMC : No warppoints\nFormat settings, Matrix : Default (MPEG)\nMuxing mode : Packed bitstream\nCodec ID : XVID\nCodec ID/Hint : XviD\nDuration : 1h 33mn\nBit rate : 1 955 Kbps\nWidth : 688 pixels\nHeight : 304 pixels\nDisplay aspect ratio : 2.25:1\nFrame rate : 25.000 fps\nColor space : YUV\nChroma subsampling : 4:2:0\nBit depth : 8 bits\nScan type : Progressive\nCompression mode : Lossy\nBits/(Pixel*Frame) : 0.374\nStream size : 1.27 GiB (93%)\nWriting library : XviD 61\n\nAudio\nID : 1\nFormat : MPEG Audio\nFormat version : Version 1\nFormat profile : Layer 3\nMode : Joint stereo\nMode extension : MS Stereo\nCodec ID : 55\nCodec ID/Hint : MP3\nDuration : 1h 33mn\nBit rate mode : Constant\nBit rate : 128 Kbps\nChannel(s) : 2 channels\nSampling rate : 44.1 KHz\nCompression mode : Lossy\nStream size : 85.2 MiB (6%)\nAlignment : Split accross interleaves\nInterleave, duration : 40 ms (1.00 video frame)\nInterleave, preload duration : 500 ms\n\n\nSOURCES:\n\nVIDEO:cinedub ..... Thanks again guys\nAUDIO:Thanks m8ty\n\nNOTES:\n\nIMAGiNE bringing you another release..........Hall Pass\n\nHere we go with another half decent TS for you all \nThe video had a few issues....too much colour,alot of glares,flickers from time to time and pretty bad AR.\nSo we made a script and dropped it n vdub and fixed what we could,but theres nothing we can do about\nthe flicker that appears now and again.\nThe audio we just had to sync and then mux to our encode......\n\nGREETS:\n\nFLAWL3SS,ViSiON,FUSiON,Rx,SecretMyth,BirdFlu,ELEKTRI4KA,Serenity,Autotron\nAnd to all the other p2p grps past and present\n\nLooking for these,syncers,cammers,audio,silver supplier.....Have anything to offer????......\nContact us &lt;a class=&quot;__cf_email__&quot; href=&quot;/cdn-cgi/l/email-protection&quot; data-cfemail=&quot;274e4a46404e49424055485257674f52544f4a464e4b0944484a&quot;&gt;[email&amp;#160;protected]&lt;/a&gt;&lt;script cf-hash='f9e31' type=&quot;text/javascript&quot;&gt;\n/* &lt;![CDATA[ */!function(){try{var t=&quot;currentScript&quot;in document?document.currentScript:function(){for(var t=document.getElementsByTagName(&quot;script&quot;),e=t.length;e--;)if(t[e].getAttribute(&quot;cf-hash&quot;))return t[e]}();if(t&amp;&amp;t.previousSibling){var e,r,n,i,c=t.previousSibling,a=c.getAttribute(&quot;data-cfemail&quot;);if(a){for(e=&quot;&quot;,r=parseInt(a.substr(0,2),16),n=2;a.length-n;n+=2)i=parseInt(a.substr(n,2),16)^r,e+=String.fromCharCode(i);e=document.createTextNode(e),c.parentNode.replaceChild(e,c)}}}catch(u){}}();/* ]]&gt; */&lt;/script&gt;\n\nEnjoy folks\n\n\n\n================================== &lt;a href=&quot;\nhttp://thepiratebay.se/user/hiest&quot; rel=&quot;nofollow&quot; target=&quot;_NEW&quot;&gt;\nhttp://thepiratebay.se/user/hiest&lt;/a&gt;\n==================================\n\n\n#### ##     ##    ###     ######   #### ##    ## ######## \n ##  ###   ###   ## ##   ##    ##   ##  ###   ## ##       \n ##  #### ####  ##   ##  ##         ##  ####  ## ##       \n ##  ## ### ## ##     ## ##   ####  ##  ## ## ## ######   \n ##  ##     ## ######### ##    ##   ##  ##  #### ##       \n ##  ##     ## ##     ## ##    ##   ##  ##   ### ##       \n#### ##     ## ##     ##  ######   #### ##    ## ######## \n\n","torrent":{"xt":"urn:btih:f5c57ce8915d6e63b8ef8c4e5c35bc224f2c33d6","amp;dn":"Hall+Pass+2011+TS+XViD+-+IMAGiNE+%5BNoRar%5D","amp;tr":["udp%3A%2F%2Ftracker.openbittorrent.com%3A80","udp%3A%2F%2Fopen.demonii.com%3A1337","udp%3A%2F%2Ftracker.coppersurfer.tk%3A6969","udp%3A%2F%2Fexodus.desync.com%3A6969"],"infoHash":"f5c57ce8915d6e63b8ef8c4e5c35bc224f2c33d6","infoHashBuffer":{"type":"Buffer","data":[245,197,124,232,145,93,110,99,184,239,140,78,92,53,188,34,79,44,51,214]},"announce":[],"urlList":[]}}